PathFileType	4	(X/Y/Z)	SUBJ36_1_walk_RCNL2025.trc
DataRate	CameraRate	NumFrames	NumMarkers	Units	OrigDataRate	OrigDataStartFrame	OrigNumFrames
100	100	6	25	mm	100	95	378
Frame#	Time	R_Shoulder			L_Shoulder			C7			J_Notch			R_Elbow			L_Elbow			R_Wrist			L_Wrist			R_Asis			L_Asis			Sacral			Thoracic			Sternum			R_Thigh_Lateral			R_Knee_Lateral			R_Shank_Lateral			R_Ankle_Lateral			R_Heel			R_Toe			L_Thigh_Lateral			L_Knee_Lateral			L_Shank_Lateral			L_Ankle_Lateral			L_Heel			L_Toe		
		X1	Y1	Z1	X2	Y2	Z2	X3	Y3	Z3	X4	Y4	Z4	X5	Y5	Z5	X6	Y6	Z6	X7	Y7	Z7	X8	Y8	Z8	X9	Y9	Z9	X10	Y10	Z10	X11	Y11	Z11	X12	Y12	Z12	X13	Y13	Z13	X14	Y14	Z14	X15	Y15	Z15	X16	Y16	Z16	X17	Y17	Z17	X18	Y18	Z18	X19	Y19	Z19	X20	Y20	Z20	X21	Y21	Z21	X22	Y22	Z22	X23	Y23	Z23	X24	Y24	Z24	X25	Y25	Z25
95	0.94000000	-68.358330	1335.718140	-162.774033	-98.167374	1302.273193	-507.897461	-144.915924	1389.537964	-320.556000	-9.613058	1283.410645	-330.252014	-121.819366	1019.721680	-74.869408	-180.700882	993.612671	-543.801697	15.212003	820.147400	-65.843618	-123.037735	768.401886	-568.160767	-17.643633	885.659912	-193.071808	-12.691295	895.440186	-419.259247	-236.262329	884.538391	-311.727295	-218.070999	1129.475220	-295.853790	25.275957	1103.612549	-317.218597	-220.580627	502.233246	-147.757950	-236.352356	444.579559	-192.190750	-387.155548	295.988739	-162.129684	-478.533447	148.670654	-232.544128	-521.006165	165.030319	-282.003967	-408.694061	48.014854	-276.867065	43.020229	518.914917	-484.732300	63.510487	449.942932	-409.953094	64.154106	237.753723	-440.277710	56.361069	71.845039	-363.362366	16.654469	41.876129	-310.339966	184.364792	46.626373	-341.173126
96	0.95000000	-55.720943	1336.686035	-163.294098	-85.402405	1303.321045	-508.277283	-132.397934	1390.448242	-320.973724	3.000015	1284.304077	-330.571411	-110.149956	1021.142639	-75.119324	-168.166306	994.679871	-544.007751	23.630192	819.503998	-65.140749	-109.880772	769.597839	-568.281433	-6.306053	885.842285	-193.421844	-0.561910	897.195251	-419.371216	-224.540649	885.073425	-311.962097	-205.828400	1130.634644	-295.950775	37.781258	1104.539307	-317.655792	-201.213547	498.592133	-146.604904	-215.935059	441.242828	-190.555344	-370.567841	298.370728	-159.855972	-467.007965	154.414688	-229.606186	-507.714722	173.928391	-279.146393	-404.478546	49.325710	-275.722687	54.002178	520.082336	-485.353333	71.966431	449.969574	-410.350403	68.634140	237.379562	-440.761871	57.037262	71.856750	-363.356110	17.062452	41.988831	-310.355560	184.655045	46.302139	-341.168884
97	0.96000000	-43.286736	1337.685669	-163.713699	-72.560600	1304.496338	-508.580811	-119.937599	1391.429688	-321.334198	15.525203	1285.213745	-330.739960	-98.667305	1022.581543	-75.332756	-155.550644	995.849792	-544.232300	31.841649	818.940155	-64.371441	-96.448410	770.921387	-568.291687	4.702381	886.033386	-193.612228	11.345336	898.834778	-419.479218	-213.128418	885.587830	-312.348877	-193.766953	1131.912109	-296.170135	50.056168	1105.420288	-317.990326	-180.941132	494.749237	-145.338882	-194.542191	437.718811	-188.911240	-352.333954	300.502991	-157.424789	-454.158783	160.609009	-226.641281	-493.067169	183.151932	-276.185364	-399.154907	51.493465	-274.205597	62.555576	520.164185	-485.940948	78.878212	449.613464	-410.854492	71.694221	236.973724	-441.054382	57.473705	71.844574	-363.307800	17.351440	42.018665	-310.300812	184.810989	46.182999	-341.168610
98	0.97000000	-31.085823	1338.683228	-164.006165	-59.641010	1305.737549	-508.791382	-107.533028	1392.469360	-321.632141	27.949829	1286.116943	-330.740356	-87.406799	1023.985535	-75.502487	-142.851212	997.068359	-544.489136	39.854630	818.425385	-63.550674	-82.756777	772.316833	-568.194824	15.403358	886.233459	-193.642227	23.020266	900.337524	-419.576599	-202.009033	886.144775	-312.892548	-181.901962	1133.291870	-296.526184	62.093609	1106.243164	-318.184692	-159.960037	490.973267	-144.016342	-172.335342	434.241547	-187.273438	-332.663330	302.499786	-154.919754	-439.935883	167.221146	-223.805267	-477.119995	192.481628	-273.345032	-392.333771	54.538448	-272.173279	68.938103	519.328491	-486.487579	84.511818	448.969452	-411.424469	73.577370	236.609192	-441.178680	57.724724	71.822762	-363.228424	17.535542	42.008175	-310.200531	184.875351	46.173416	-341.164825
99	0.98000000	-19.132072	1339.657959	-164.154770	-46.644573	1306.994629	-508.894653	-95.183739	1393.560791	-321.863617	40.264484	1287.000122	-330.563965	-76.395668	1025.325439	-75.623932	-130.057602	998.293884	-544.789246	47.669639	817.940948	-62.695049	-68.826588	773.741974	-567.990234	25.828697	886.484558	-193.529800	34.460838	901.703979	-419.655792	-191.149307	886.824768	-313.582581	-170.240982	1134.761230	-297.018982	73.894135	1107.008667	-318.200806	-138.498993	487.550995	-142.694504	-149.494629	431.072632	-185.649017	-311.825134	304.497040	-152.441238	-424.275787	174.124588	-221.262756	-459.947113	201.626297	-270.865234	-383.576569	58.374561	-269.504333	73.658890	517.860779	-486.986847	89.174927	448.154510	-412.014404	74.557838	236.329163	-441.179688	57.847260	71.799553	-363.132446	17.639339	41.991280	-310.081848	184.883896	46.208431	-341.156128
100	0.99000000	-7.426531	1340.603271	-164.153290	-33.576538	1308.233398	-508.881683	-82.893440	1394.702515	-322.027557	52.460773	1287.858276	-330.213074	-65.655785	1026.593628	-75.697166	-117.153152	999.500000	-545.140076	55.283175	817.483887	-61.820105	-54.678707	775.169769	-567.674103	36.018997	886.859314	-193.308807	45.671017	902.947754	-419.712646	-180.506775	887.699768	-314.394257	-158.784714	1136.308105	-297.638916	85.462189	1107.725952	-318.003357	-116.784729	484.729462	-141.425842	-126.201881	428.448517	-184.039307	-290.100983	306.608978	-150.096039	-407.151337	181.106018	-219.153275	-441.641937	210.257523	-268.952820	-372.456451	62.834965	-266.118713	77.312378	516.095398	-487.444183	93.154831	447.292633	-412.582642	74.911842	236.152344	-441.116577	57.894192	71.779335	-363.034088	17.689890	41.987988	-309.970306	184.863968	46.249458	-341.146179
